<?xml version="1.0" encoding="UTF-8" standalone="no"?>
<!DOCTYPE svg PUBLIC "-//W3C//DTD SVG 1.1//EN" "http://www.w3.org/Graphics/SVG/1.1/DTD/svg11.dtd">
<svg width="100%" height="100%" viewBox="0 0 40 40" version="1.1" xmlns="http://www.w3.org/2000/svg" xmlns:xlink="http://www.w3.org/1999/xlink" xml:space="preserve" xmlns:serif="http://www.serif.com/" style="fill-rule:evenodd;clip-rule:evenodd;stroke-linejoin:round;stroke-miterlimit:2;">
    <g id="reddit1" transform="matrix(0.458333,0,0,0.458333,9,9)">
        <circle cx="24" cy="24" r="24" style="fill:rgb(255,69,0);"/>
        <path d="M40,24C39.998,22.081 38.419,20.504 36.5,20.504C35.595,20.504 34.725,20.855 34.073,21.482C31.31,19.601 28.055,18.569 24.713,18.513L26.307,11.013L31.516,12.121C31.578,13.447 32.686,14.505 34.013,14.505C35.385,14.505 36.513,13.376 36.513,12.005C36.513,10.633 35.385,9.505 34.013,9.505C33.064,9.505 32.193,10.046 31.772,10.897L25.951,9.659C25.616,9.588 25.281,9.805 25.21,10.14L23.43,18.51C20.041,18.54 16.735,19.572 13.93,21.476C13.277,20.845 12.404,20.491 11.496,20.491C9.576,20.491 7.996,22.071 7.996,23.991C7.996,25.373 8.815,26.631 10.078,27.191C10.025,27.541 9.999,27.896 10,28.25C10,33.635 16.264,38 24,38C31.736,38 38,33.635 38,28.25C37.999,27.898 37.972,27.546 37.918,27.198C39.181,26.638 39.999,25.381 40,24ZM16,26.5C16,25.129 17.129,24 18.5,24C19.871,24 21,25.129 21,26.5C21,27.871 19.871,29 18.5,29C17.129,29 16,27.871 16,26.5ZM29.94,33.106C28.234,34.806 24.964,34.943 24.003,34.943C23.042,34.943 19.771,34.81 18.067,33.106C17.946,32.985 17.877,32.82 17.877,32.648C17.877,32.292 18.17,32 18.525,32C18.697,32 18.862,32.068 18.984,32.19C20.059,33.265 22.36,33.647 24.003,33.647C25.646,33.647 27.947,33.265 29.025,32.189C29.147,32.059 29.318,31.986 29.496,31.986C29.852,31.986 30.144,32.278 30.144,32.634C30.144,32.813 30.07,32.984 29.94,33.106ZM29.5,29C28.129,29 27,27.871 27,26.5C27,25.129 28.129,24 29.5,24C30.871,24 32,25.129 32,26.5C32,27.871 30.871,29 29.5,29Z" style="fill:white;fill-rule:nonzero;"/>
    </g>
</svg>
