<?xml version="1.0" encoding="UTF-8" standalone="no"?>
<!DOCTYPE svg PUBLIC "-//W3C//DTD SVG 1.1//EN" "http://www.w3.org/Graphics/SVG/1.1/DTD/svg11.dtd">
<svg width="100%" height="100%" viewBox="0 0 40 40" version="1.1" xmlns="http://www.w3.org/2000/svg" xmlns:xlink="http://www.w3.org/1999/xlink" xml:space="preserve" xmlns:serif="http://www.serif.com/" style="fill-rule:evenodd;clip-rule:evenodd;stroke-linejoin:round;stroke-miterlimit:2;">
    <g id="reddit0" transform="matrix(0.149408,0,0,0.149408,8.77708,8.81922)">
        <circle cx="75.116" cy="74.834" r="73.624" style="fill:none;"/>
        <path d="M140.543,74.834C140.543,74.826 140.543,74.818 140.543,74.811C140.543,66.966 134.088,60.511 126.243,60.511C122.533,60.511 118.965,61.954 116.299,64.534C106.513,57.472 93.031,52.912 78.014,52.388L84.535,21.707L105.841,26.236C106.089,31.672 110.63,36.01 116.071,36.01C121.689,36.01 126.312,31.387 126.312,25.769C126.312,20.151 121.689,15.528 116.071,15.528C112.179,15.528 108.611,17.746 106.888,21.236L83.1,16.175C82.926,16.138 82.748,16.119 82.569,16.119C81.367,16.119 80.319,16.968 80.069,18.145L72.783,52.379C57.546,52.802 43.847,57.369 33.936,64.509C31.273,61.953 27.721,60.524 24.029,60.524C16.181,60.524 9.722,66.983 9.722,74.831C9.722,80.459 13.043,85.585 18.178,87.887C17.953,89.319 17.838,90.767 17.836,92.217C17.836,114.242 43.474,132.097 75.1,132.097C106.726,132.097 132.363,114.242 132.363,92.217C132.361,90.777 132.248,89.34 132.026,87.917C137.193,85.629 140.542,80.485 140.543,74.834Z" style="fill:rgb(255,69,0);fill-rule:nonzero;"/>
    </g>
</svg>
